<svg width="23" height="23" viewBox="0 0 23 23" fill="none" xmlns="http://www.w3.org/2000/svg">
<g clip-path="url(#clip0)">
<path d="M11.7214 22.291C17.8762 22.291 22.8657 17.3015 22.8657 11.1467C22.8657 4.9919 17.8762 0.00244141 11.7214 0.00244141C5.56661 0.00244141 0.577148 4.9919 0.577148 11.1467C0.577148 17.3015 5.56661 22.291 11.7214 22.291Z" fill="#1977F3"/>
<path d="M16.0599 14.3678L16.5535 11.1457H13.463V9.05508C13.463 8.17432 13.894 7.31393 15.2794 7.31393H16.6852V4.57135C16.6852 4.57135 15.4095 4.35352 14.1902 4.35352C11.6451 4.35352 9.98073 5.89563 9.98073 8.68992V11.1457H7.15039V14.3678H9.98073V22.1552C10.5481 22.2445 11.1295 22.29 11.7219 22.29C12.3143 22.29 12.8957 22.243 13.463 22.1552V14.3678H16.0599Z" fill="white"/>
</g>
<defs>
<clipPath id="clip0">
<rect width="22.2886" height="22.2886" fill="white" transform="translate(0.577148)"/>
</clipPath>
</defs>
</svg>
