<svg width="22" height="16" viewBox="0 0 22 16" fill="none" xmlns="http://www.w3.org/2000/svg">
<g clip-path="url(#clip0_5410_613)">
<path d="M2.02084 15.9303H5.38945V7.89295L0.577148 4.34705V14.512C0.577148 15.2968 1.2244 15.9303 2.02084 15.9303Z" fill="#4285F4"/>
<path d="M16.939 15.9303H20.3076C21.1064 15.9303 21.7513 15.2944 21.7513 14.512V4.34705L16.939 7.89295" fill="#34A853"/>
<path d="M16.939 1.74685V7.89309L21.7513 4.34718V2.45603C21.7513 0.701989 19.7133 -0.297957 18.2864 0.753995" fill="#FBBC04"/>
<path d="M5.3894 7.89294V1.7467L11.1642 6.00179L16.9389 1.7467V7.89294L11.1642 12.148" fill="#EA4335"/>
<path d="M0.577148 2.45432V4.34547L5.38945 7.89138V1.74514L4.04201 0.752286C2.61275 -0.299666 0.577148 0.70028 0.577148 2.45432Z" fill="#C5221F"/>
</g>
<defs>
<clipPath id="clip0_5410_613">
<rect width="21.1741" height="15.602" fill="white" transform="translate(0.577148 0.328369)"/>
</clipPath>
</defs>
</svg>
